# xmcd
#
# Track frame offsets:
#	150
#	17756
#	33591
#	47973
#	63530
#	80390
#	96776
#	111135
#	128327
#	142576
#	157604
#	173146
#	187560
#	203804
#	218407
#	232910
#	248003
#	262681
#	276656
#	289284
#
# Disc length: 4041 seconds
#
# Revision: 0
# Processed by: cddbd v1.5.2PL0 Copyright (c) Steve Scherf et al.
# Submitted via: EasyCDDAExtractor 16.0.9.1
#
DISCID=000fc714
DTITLE=Nu Country Traxx Volume 201 US
DYEAR=2016
DGENRE=country
TTITLE0=Jennifer Nettles - Unlove You
TTITLE1=Carrie Underwood - Heartbeat
TTITLE2=Cole Swindell - You Should Be Here
TTITLE3=Old Dominion - Snapback
TTITLE4=Trace Adkins - Jesus And Jones
TTITLE5=Big and Rich ft. Tim McGraw - Lovin' Lately
TTITLE6=Chris Lane - Fix
TTITLE7=Brian Collins - Shine A Little Love
TTITLE8=Drake White - Livin' The Dream
TTITLE9=David Fanning - What's Next
TTITLE10=Dave and Whitney - Alibi
TTITLE11=Sarah Ross - Lovin' This Beat
TTITLE12=Homegrown Band - She Loves To Ride
TTITLE13=Charles Esten - Just Like New
TTITLE14=Leslie Cours Mather - That Was The Whiskey
TTITLE15=Stephanie Quayle - That's What I'm Talking About
TTITLE16=Chad Brownlee - Hearts On Fire
TTITLE17=Jojo Mason - Good Kinda Love
TTITLE18=Jordan McIntosh - All About The Girl
TTITLE19=Tebey - Jealous Of The Sun
EXTD=
EXTT0=
EXTT1=
EXTT2=
EXTT3=
EXTT4=
EXTT5=
EXTT6=
EXTT7=
EXTT8=
EXTT9=
EXTT10=
EXTT11=
EXTT12=
EXTT13=
EXTT14=
EXTT15=
EXTT16=
EXTT17=
EXTT18=
EXTT19=
PLAYORDER=
